<svg xmlns="http://www.w3.org/2000/svg" width="1200" height="630" viewBox="0 0 1200 630" role="img" aria-labelledby="title desc">
  <title id="title">Zahnarzt Adolf Roth in Neuenstadt am Kocher</title>
  <desc id="desc">Ehrliche, gründliche Zahnmedizin auf Augenhöhe.</desc>
  <defs>
    <linearGradient id="bg" x1="0" y1="0" x2="1" y2="1">
      <stop offset="0" stop-color="#f7f8f9"/>
      <stop offset="0.62" stop-color="#f9f1f2"/>
      <stop offset="1" stop-color="#dcefe9"/>
    </linearGradient>
    <radialGradient id="orb" cx="50%" cy="50%" r="50%">
      <stop offset="0" stop-color="#b02c45" stop-opacity=".26"/>
      <stop offset="1" stop-color="#b02c45" stop-opacity="0"/>
    </radialGradient>
  </defs>
  <rect width="1200" height="630" fill="url(#bg)"/>
  <circle cx="1040" cy="-40" r="360" fill="url(#orb)"/>
  <circle cx="110" cy="570" r="270" fill="#a8d8cb" opacity=".2"/>
  <path d="M0 86h1200M0 544h1200" stroke="#b02c45" stroke-opacity=".16"/>
  <g transform="translate(92 92)" fill="none" stroke="#a3263e" stroke-width="7" stroke-linecap="round" stroke-linejoin="round">
    <path d="M44 12C16 4 0 24 3 54c3 32 16 46 23 78 7 32 12 64 32 64 14 0 16-37 25-57 4-9 17-9 21 0 9 20 11 57 25 57 20 0 25-32 32-64 7-32 20-46 23-78 3-30-13-50-41-42-11 3-20 9-31 9s-20-6-31-9Z"/>
  </g>
  <text x="92" y="300" fill="#101827" font-family="Georgia, serif" font-size="74" font-weight="600">Zahnarzt Adolf Roth</text>
  <text x="96" y="370" fill="#a3263e" font-family="Arial, sans-serif" font-size="30" letter-spacing="5">EHRLICH · GRÜNDLICH · AUF AUGENHÖHE</text>
  <text x="96" y="470" fill="#586579" font-family="Arial, sans-serif" font-size="30">Zahnmedizin in Neuenstadt am Kocher</text>
  <text x="96" y="530" fill="#586579" font-family="Arial, sans-serif" font-size="24">Prophylaxe · Zahnersatz · Angstpatienten · Beratung</text>
</svg>
